<?xml version="1.0" encoding="utf-8"?>
<!-- Generator: Adobe Illustrator 21.0.0, SVG Export Plug-In . SVG Version: 6.00 Build 0)  -->
<svg version="1.1" id="图层_1" xmlns="http://www.w3.org/2000/svg" xmlns:xlink="http://www.w3.org/1999/xlink" x="0px" y="0px"
	 viewBox="0 0 44 44" style="enable-background:new 0 0 44 44;" xml:space="preserve">
<style type="text/css">
	.st0{fill:#FF973A;}
	.st1{fill:#4F4F4F;}
	.st2{fill:#FFFFFF;}
</style>
<polyline class="st0" points="35.1,39.5 35.4,39.3 35.2,23 21.6,15 8.2,23.3 8.4,39.5 "/>
<line class="st1" x1="34.4" y1="40.5" x2="6.4" y2="40.5"/>
<path class="st2" d="M24.9,37.1h-5.8c-1.1,0-2-0.9-2-2v-8.5c0-1.1,0.9-2,2-2h5.8c1.1,0,2,0.9,2,2v8.5C26.9,36.2,26,37.1,24.9,37.1z"
	/>
<path class="st0" d="M21.2,11.9L7.6,20.8c-1,0.6-2.3,0.4-3-0.6c-0.2-0.4-0.3-0.8-0.3-1.2c0-0.7,0.3-1.4,1-1.8l13.7-8.9l1.2-0.8
	c0.4-0.3,0.9-0.4,1.4-0.3c0,0,0,0,0,0s0,0,0,0"/>
<path class="st0" d="M21.6,7.2C21.6,7.2,21.6,7.2,21.6,7.2C21.6,7.2,21.6,7.2,21.6,7.2c0.2,0.1,0.3,0.1,0.4,0.2L23,8l15.2,9.2
	c1,0.6,1.3,1.9,0.7,3c-0.4,0.7-1.1,1-1.8,1c-0.4,0-0.8-0.1-1.1-0.3l-14.8-9"/>
<rect x="10.5" y="8" class="st0" width="5.2" height="7.4"/>
</svg>
