<?xml version="1.0" encoding="utf-8"?>
<!-- Generator: Adobe Illustrator 21.0.0, SVG Export Plug-In . SVG Version: 6.00 Build 0)  -->
<svg version="1.1" id="图层_1" xmlns="http://www.w3.org/2000/svg" xmlns:xlink="http://www.w3.org/1999/xlink" x="0px" y="0px"
	 viewBox="0 0 44 44" style="enable-background:new 0 0 44 44;" xml:space="preserve">
<style type="text/css">
	.st0{fill:#FF973A;}
	.st1{fill:#FFFFFF;}
	.st2{font-family:'ArialMT';}
	.st3{font-size:6.2886px;}
</style>
<g>
	<path class="st0" d="M31.5,40.4H8c-0.8,0-1.4-0.6-1.4-1.4V5.8C6.7,5,7.3,4.4,8,4.4h23.5c0.8,0,1.4,0.6,1.4,1.4v33.3
		C32.9,39.8,32.3,40.4,31.5,40.4z"/>
	<path class="st0" d="M39.7,28.1c0,0.1,0,0.2,0,0.2v8.8c0,1.8-1.7,3.4-3.7,3.4h-4.9c-2,0-3.7-1.5-3.7-3.4v-8.8c0-0.1,0-0.2,0-0.2"/>
	<path class="st1" d="M32.9,39h2.2c1.6,0,2.8-1.2,2.8-2.6v-6.7c0-0.1,0-0.1,0-0.2"/>
	<line class="st0" x1="36.5" y1="28.1" x2="25.3" y2="28.1"/>
	<polyline class="st1" points="37.9,36.4 37.9,29.7 37.9,29.5 37.9,29.5 32.9,29.5 32.9,39 	"/>
</g>
<rect x="8.9" y="17.6" class="st1" width="22" height="0.8"/>
<rect x="8.9" y="13.1" class="st1" width="22" height="0.8"/>
<rect x="8.8" y="22.1" class="st1" width="22" height="0.8"/>
<rect x="8.9" y="31.1" class="st1" width="22" height="0.8"/>
<rect x="8.8" y="26.6" class="st1" width="22" height="0.8"/>
<text transform="matrix(1.0907 0 0 1 9.583 10.7977)" class="st1 st2 st3">NEWS</text>
</svg>
