<?xml version="1.0" encoding="utf-8"?>
<!-- Generator: Adobe Illustrator 21.0.0, SVG Export Plug-In . SVG Version: 6.00 Build 0)  -->
<svg version="1.1" id="图层_1" xmlns="http://www.w3.org/2000/svg" xmlns:xlink="http://www.w3.org/1999/xlink" x="0px" y="0px"
	 viewBox="0 0 44 44" style="enable-background:new 0 0 44 44;" xml:space="preserve">
<style type="text/css">
	.st0{fill:#FF973A;stroke:#4C4C4C;stroke-width:0.25;stroke-miterlimit:10;}
	.st1{fill:#FF973A;stroke:#4F4F4F;stroke-width:0.25;stroke-miterlimit:10;}
	.st2{fill:#FFFFFF;stroke:#4C4C4C;stroke-width:0.25;stroke-miterlimit:10;}
</style>
<g>
	<rect x="9" y="14.2" class="st0" width="7.8" height="21.7"/>
	<rect x="28" y="21.1" class="st0" width="7.8" height="14.8"/>
	<rect x="25.2" y="15.3" class="st0" width="7.8" height="20.7"/>
	<rect x="22.5" y="19.1" class="st0" width="7.8" height="16.9"/>
	<rect x="16.7" y="7.3" class="st0" width="7.8" height="28.6"/>
	<rect x="4.6" y="34.6" class="st1" width="34.7" height="2.1"/>
</g>
<rect x="18.5" y="9.3" class="st2" width="1.3" height="1.3"/>
<rect x="18.5" y="11.5" class="st2" width="1.3" height="1.3"/>
<rect x="10.3" y="15.9" class="st2" width="1.3" height="1.3"/>
<rect x="14" y="15.9" class="st2" width="1.3" height="1.3"/>
<rect x="25.2" y="20.3" class="st2" width="1.3" height="1.3"/>
<rect x="27.8" y="20.3" class="st2" width="1.3" height="1.3"/>
<rect x="26.2" y="16.6" class="st2" width="1.3" height="1.3"/>
<rect x="30" y="16.6" class="st2" width="1.3" height="1.3"/>
<rect x="33.5" y="22.5" class="st2" width="1.3" height="1.3"/>
<rect x="27.8" y="22.5" class="st2" width="1.3" height="1.3"/>
<rect x="25.2" y="22.5" class="st2" width="1.3" height="1.3"/>
<rect x="14" y="18.4" class="st2" width="1.3" height="1.3"/>
<rect x="10.3" y="18.4" class="st2" width="1.3" height="1.3"/>
<rect x="21.4" y="9.3" class="st2" width="1.3" height="1.3"/>
<rect x="21.4" y="11.5" class="st2" width="1.3" height="1.3"/>
</svg>
