<?xml version="1.0" encoding="utf-8"?>
<!-- Generator: Adobe Illustrator 19.0.0, SVG Export Plug-In . SVG Version: 6.00 Build 0)  -->
<svg version="1.1" id="图层_1" xmlns="http://www.w3.org/2000/svg" xmlns:xlink="http://www.w3.org/1999/xlink" x="0px" y="0px"
	 viewBox="-533 423 100 100" style="enable-background:new -533 423 100 100;" xml:space="preserve">
<style type="text/css">
	.st0{fill:#FF973A;}
</style>
<g id="XMLID_245_">
	<g id="XMLID_253_">
		<g id="XMLID_255_">
			<ellipse id="XMLID_16_" class="st0" cx="-483" cy="450.3" rx="27.5" ry="27.3"/>
		</g>
	</g>
	<g id="XMLID_248_">
		<path id="XMLID_15_" class="st0" d="M-459.4,486.4l13,4.5c2.3,0.7,3.9,2.7,4.3,5l3.6,19.3c0.7,4.1-2.3,7.7-6.4,7.7h-76.4
			c-4.1,0-7-3.6-6.4-7.7l3.6-19.5c0.5-2.3,2-4.1,4.3-5l13-4.5c1.8-0.7,3.9-0.5,5.7,0.7c3.4,2,9.8,5.2,18.2,5.2s14.8-3.2,18.2-5.2
			C-463.5,486-461.4,485.7-459.4,486.4z"/>
	</g>
</g>
</svg>
